# xmcd CD database file
#
# Track frame offsets:
#	150
#	15003
#	28501
#	49289
#	61814
#	89272
#	107483
#	126186
#	138589
#	157589
#	176729
#	199951
#	213656
#	228924
#	247165
#	266342
#	277812
#
# Disc length: 3937 seconds
#
# Revision: 0
# Processed by: cddbd v1.5PL3 Copyright (c) Steve Scherf et al.
# Submitted via: CDex 1.51
#
DISCID=e10f5f11
DTITLE=E Type Jazz - More Than You Asked For
DYEAR=2002
DGENRE=Jazz
TTITLE0=My Baby Just Cares for Me
TTITLE1=Perhaps Perhaps Perhaps
TTITLE2=Fever
TTITLE3=It had to be You
TTITLE4=Summertime
TTITLE5=Moon River
TTITLE6=Dont get around anymore
TTITLE7=Fly me to the moon
TTITLE8=Misty
TTITLE9=Mack the knife
TTITLE10=Boy from Ipanema
TTITLE11=Someone to watch over me
TTITLE12=Route 66
TTITLE13=New York, New York
TTITLE14=What a wonderful world
TTITLE15=Shine again
TTITLE16=A mirror Journey
EXTD=YEAR: 2002
EXTT0=
EXTT1=
EXTT2=
EXTT3=
EXTT4=
EXTT5=
EXTT6=
EXTT7=
EXTT8=
EXTT9=
EXTT10=
EXTT11=
EXTT12=
EXTT13=
EXTT14=
EXTT15=
EXTT16=
PLAYORDER=
